nColumns=19
nRows=138
DataType=double
version=3
OpenSimVersion=4.1
endheader
time	ground_force_calcn_r_vx	ground_force_calcn_r_vy	ground_force_calcn_r_vz	ground_force_calcn_r_px	ground_force_calcn_r_py	ground_force_calcn_r_pz	ground_force_calcn_r_mx	ground_force_calcn_r_my	ground_force_calcn_r_mz	ground_force_calcn_l_vx	ground_force_calcn_l_vy	ground_force_calcn_l_vz	ground_force_calcn_l_px	ground_force_calcn_l_py	ground_force_calcn_l_pz	ground_force_calcn_l_mx	ground_force_calcn_l_my	ground_force_calcn_l_mz
2.715	0	0	0	0	0	0	0	0	0	-56.2973	125.172	-17.5808	1.16613	0	-0.390366	1.76856	-3.93225	0.552297
2.72	0	0	0	0	0	0	0	0	0	-110.992	321.477	5.04688	1.05148	0	-0.439163	1.06817	-3.09387	-0.0485708
2.725	0	0	0	0	0	0	0	0	0	-171.2	600.897	57.4241	1.04319	0	-0.421679	-0.313734	1.10118	0.105233
2.73	0	0	0	0	0	0	0	0	0	-218.05	925.274	142.884	1.038	0	-0.405948	-1.83022	7.76636	1.19931
2.735	0	0	0	0	0	0	0	0	0	-243.425	1252.04	238.293	1.03396	0	-0.390775	-1.67902	8.63594	1.64363
2.74	0	0	0	0	0	0	0	0	0	-270.189	1561.36	302.202	1.02514	0	-0.376964	1.09543	-6.33019	-1.22522
2.745	0	0	0	0	0	0	0	0	0	-320.338	1834.95	297.859	1.0102	0	-0.366154	5.36571	-30.7357	-4.98918
2.75	0	0	0	0	0	0	0	0	0	-378.163	2050.63	211.319	0.996227	0	-0.360221	8.16781	-44.2908	-4.56421
2.755	0	0	0	0	0	0	0	0	0	-427.204	2211.01	66.5835	0.985883	0	-0.359374	7.17331	-37.1258	-1.11802
2.76	0	0	0	0	0	0	0	0	0	-465.973	2339.41	-81.7498	0.976466	0	-0.361576	2.83063	-14.2112	0.496604
2.765	0	0	0	0	0	0	0	0	0	-484.7	2451.45	-177.722	0.966793	0	-0.364116	-2.0432	10.3338	-0.749168
2.77	0	0	0	0	0	0	0	0	0	-477.464	2553.56	-187.767	0.953084	0	-0.364838	-4.32425	23.1268	-1.70055
2.775	0	0	0	0	0	0	0	0	0	-445.842	2643.09	-115.82	0.931853	0	-0.363532	-3.47102	20.5773	-0.901695
2.78	0	0	0	0	0	0	0	0	0	-389.968	2709.43	-3.39046	0.905283	0	-0.361704	-0.972222	6.75484	-0.0084527
2.785	0	0	0	0	0	0	0	0	0	-317.373	2746.7	96.1055	0.876836	0	-0.360806	0.976675	-8.45262	-0.295752
2.79	0	0	0	0	0	0	0	0	0	-241.143	2756.82	145.941	0.847791	0	-0.361469	1.25803	-14.3821	-0.761363
2.795	0	0	0	0	0	0	0	0	0	-165.982	2744.4	147.545	0.819567	0	-0.362855	0.596395	-9.86098	-0.530149
2.8	0	0	0	0	0	0	0	0	0	-91.228	2716.91	128.534	0.793968	0	-0.363637	0.0997369	-2.97032	-0.140522
2.805	0	0	0	0	0	0	0	0	0	-20.5707	2675.37	115.67	0.770399	0	-0.363107	0.0244005	-3.17346	-0.137205
2.81	0	0	0	0	0	0	0	0	0	45.6646	2616.3	113.927	0.747795	0	-0.361764	-0.238945	-13.6901	-0.596134
2.815	0	0	0	0	0	0	0	0	0	110.849	2541.15	110.09	0.725491	0	-0.360302	-1.25355	-28.7369	-1.24497
2.82	0	0	0	0	0	0	0	0	0	176.803	2454.5	84.2923	0.703473	0	-0.359045	-2.56002	-35.54	-1.22051
2.825	0	0	0	0	0	0	0	0	0	243.274	2354.37	25.4764	0.682746	0	-0.357799	-2.427	-23.4881	-0.254162
2.83	0	0	0	0	0	0	0	0	0	305.086	2230.38	-58.9029	0.663487	0	-0.356015	1.22744	8.97339	-0.236982
2.835	0	0	0	0	0	0	0	0	0	357.915	2067.8	-143.853	0.644097	0	-0.3532	9.10762	52.6179	-3.66052
2.84	0	0	0	0	0	0	0	0	0	401.13	1860.67	-196.686	0.621829	0	-0.349526	18.8696	87.528	-9.25236
2.845	0	0	0	0	0	0	0	0	0	431.208	1613.86	-190.027	0.5896	0	-0.346757	24.6722	92.3391	-10.8726
2.85	0	0	0	0	0	0	0	0	0	441.547	1339.58	-118.459	0.539195	0	-0.3496	19.1043	57.9594	-5.12533
2.855	0	0	0	0	0	0	0	0	0	428.678	1056.59	-5.70251	0.472153	0	-0.367734	-3.5271	-8.69349	0.0469194
2.86	0	0	0	0	0	0	0	0	0	389.419	787.066	99.6917	0.406097	0	-0.411764	-37.7141	-76.2251	-9.65485
2.865	0	0	0	0	0	0	0	0	0	323.57	551.652	147.109	0.361453	0	-0.473329	-60.2662	-102.747	-27.3996
2.87	0	0	0	0	0	0	0	0	0	239.799	361.553	113.768	0.324019	0	-0.510374	-51.0412	-76.9565	-24.2156
2.875	0	0	0	0	0	0	0	0	0	152.229	213.281	24.0877	0.254277	0	-0.453324	-14.5648	-20.4061	-2.30465
2.88	0	0	0	0	0	0	0	0	0	81.9054	101.438	-65.0611	0.53049	0	-0.152726	21.467	26.5863	-17.0522
2.885	0	0	0	0	0	0	0	0	0	40.2415	29.6685	-104.847	1.06886	0	-0.0911625	8.09771	5.97014	-21.0981
2.89	0	0	0	0	0	0	0	0	0	0	0	0	0	0	0	0	0	0
2.895	0	0	0	0	0	0	0	0	0	0	0	0	0	0	0	0	0	0
2.9	0	0	0	0	0	0	0	0	0	0	0	0	0	0	0	0	0	0
2.905	0	0	0	0	0	0	0	0	0	0	0	0	0	0	0	0	0	0
2.91	0	0	0	0	0	0	0	0	0	0	0	0	0	0	0	0	0	0
2.915	0	0	0	0	0	0	0	0	0	0	0	0	0	0	0	0	0	0
2.92	0	0	0	0	0	0	0	0	0	0	0	0	0	0	0	0	0	0
2.925	0	0	0	0	0	0	0	0	0	0	0	0	0	0	0	0	0	0
2.93	0	0	0	0	0	0	0	0	0	0	0	0	0	0	0	0	0	0
2.935	0	0	0	0	0	0	0	0	0	0	0	0	0	0	0	0	0	0
2.94	0	0	0	0	0	0	0	0	0	0	0	0	0	0	0	0	0	0
2.945	0	0	0	0	0	0	0	0	0	0	0	0	0	0	0	0	0	0
2.95	0	0	0	0	0	0	0	0	0	0	0	0	0	0	0	0	0	0
2.955	0	0	0	0	0	0	0	0	0	0	0	0	0	0	0	0	0	0
2.96	0	0	0	0	0	0	0	0	0	0	0	0	0	0	0	0	0	0
2.965	0	0	0	0	0	0	0	0	0	0	0	0	0	0	0	0	0	0
2.97	0	0	0	0	0	0	0	0	0	0	0	0	0	0	0	0	0	0
2.975	0	0	0	0	0	0	0	0	0	0	0	0	0	0	0	0	0	0
2.98	0	0	0	0	0	0	0	0	0	0	0	0	0	0	0	0	0	0
2.985	0	0	0	0	0	0	0	0	0	0	0	0	0	0	0	0	0	0
2.99	0	0	0	0	0	0	0	0	0	0	0	0	0	0	0	0	0	0
2.995	0	0	0	0	0	0	0	0	0	0	0	0	0	0	0	0	0	0
3	0	0	0	0	0	0	0	0	0	0	0	0	0	0	0	0	0	0
3.005	0	0	0	0	0	0	0	0	0	0	0	0	0	0	0	0	0	0
3.01	0	0	0	0	0	0	0	0	0	0	0	0	0	0	0	0	0	0
3.015	0	0	0	0	0	0	0	0	0	0	0	0	0	0	0	0	0	0
3.02	0	0	0	0	0	0	0	0	0	0	0	0	0	0	0	0	0	0
3.025	0	0	0	0	0	0	0	0	0	0	0	0	0	0	0	0	0	0
3.03	0	0	0	0	0	0	0	0	0	0	0	0	0	0	0	0	0	0
3.035	-35.5757	34.5512	-2.33029	1.23666	0	-0.278632	-1.54936	1.50475	-0.101487	0	0	0	0	0	0	0	0	0
3.04	-70.9975	155.959	-25.8169	1.12521	0	-0.223465	0.283102	-0.621884	0.102944	0	0	0	0	0	0	0	0	0
3.045	-119.86	355.117	-60.0166	1.03503	0	-0.220191	1.37482	-4.07328	0.688405	0	0	0	0	0	0	0	0	0
3.05	-174.253	624.18	-104.969	1.02609	0	-0.229739	2.06451	-7.39517	1.24365	0	0	0	0	0	0	0	0	0
3.055	-217.394	942.508	-150.924	1.02168	0	-0.238868	1.83008	-7.93429	1.27052	0	0	0	0	0	0	0	0	0
3.06	-239.956	1293.62	-178.477	1.01762	0	-0.246958	0.337251	-1.81815	0.250844	0	0	0	0	0	0	0	0	0
3.065	-256.303	1649.11	-172.191	1.01119	0	-0.252904	-1.57341	10.1237	-1.05706	0	0	0	0	0	0	0	0	0
3.07	-295.306	1965.05	-129.505	1.00459	0	-0.256457	-2.81066	18.7029	-1.2326	0	0	0	0	0	0	0	0	0
3.075	-369.653	2205.97	-58.8069	1.00246	0	-0.257758	-3.01955	18.0197	-0.480369	0	0	0	0	0	0	0	0	0
3.08	-465.987	2367.81	20.6106	1.00334	0	-0.257714	-2.77132	14.0819	0.122576	0	0	0	0	0	0	0	0	0
3.085	-555.632	2475.06	85.4389	1.00006	0	-0.257444	-2.66952	11.8914	0.410489	0	0	0	0	0	0	0	0	0
3.09	-604.358	2556.58	118.777	0.987858	0	-0.257186	-2.26388	9.57673	0.444928	0	0	0	0	0	0	0	0	0
3.095	-593.29	2631.51	113.049	0.965888	0	-0.256903	-1.43437	6.36206	0.273312	0	0	0	0	0	0	0	0	0
3.1	-530.499	2705.49	73.5624	0.935645	0	-0.256744	-0.338225	1.72491	0.0469005	0	0	0	0	0	0	0	0	0
3.105	-435.99	2770.61	17.506	0.901875	0	-0.256894	0.381349	-2.42338	-0.0153121	0	0	0	0	0	0	0	0	0
3.11	-334.326	2817.77	-34.6661	0.86981	0	-0.257314	0.149599	-1.26085	0.0155118	0	0	0	0	0	0	0	0	0
3.115	-244.455	2843.81	-68.582	0.841718	0	-0.257544	-0.253805	2.95258	-0.0712051	0	0	0	0	0	0	0	0	0
3.12	-164.998	2847.31	-83.1819	0.816116	0	-0.257541	-0.283862	4.89851	-0.143106	0	0	0	0	0	0	0	0	0
3.125	-81.0521	2828.31	-87.8104	0.790929	0	-0.257645	-0.162074	5.65556	-0.175588	0	0	0	0	0	0	0	0	0
3.13	12.5306	2786.15	-92.6849	0.765434	0	-0.258202	0.0357534	7.94971	-0.264457	0	0	0	0	0	0	0	0	0
3.135	103.823	2718.09	-99.6713	0.740364	0	-0.259235	0.511269	13.3851	-0.490826	0	0	0	0	0	0	0	0	0
3.14	180.015	2624.07	-100.159	0.718419	0	-0.260203	1.47731	21.5346	-0.821962	0	0	0	0	0	0	0	0	0
3.145	236.483	2508.15	-83.132	0.702087	0	-0.260729	2.52181	26.7465	-0.886505	0	0	0	0	0	0	0	0	0
3.15	277.33	2370.57	-45.5186	0.691174	0	-0.260802	2.72082	23.2572	-0.446574	0	0	0	0	0	0	0	0	0
3.155	310.974	2204.95	4.56684	0.682507	0	-0.260696	1.56776	11.1161	0.0230235	0	0	0	0	0	0	0	0	0
3.16	341.95	2004.58	55.3948	0.671431	0	-0.260868	-1.24766	-7.31404	-0.202117	0	0	0	0	0	0	0	0	0
3.165	371.552	1763.91	93.5625	0.652211	0	-0.262104	-5.80175	-27.5432	-1.46097	0	0	0	0	0	0	0	0	0
3.17	398.947	1479.12	105.179	0.614965	0	-0.265186	-10.7799	-39.9669	-2.84201	0	0	0	0	0	0	0	0	0
3.175	422.427	1158.8	84.7265	0.546479	0	-0.269891	-13.22	-36.2652	-2.65156	0	0	0	0	0	0	0	0	0
3.18	434.981	834.107	41.4793	0.435829	0	-0.271654	-8.25295	-15.8256	-0.786992	0	0	0	0	0	0	0	0	0
3.185	422.971	547.921	-4.27761	0.287187	0	-0.253477	7.98648	10.3458	-0.0807691	0	0	0	0	0	0	0	0	0
3.19	376.311	337.014	-33.7962	0.148737	0	-0.200029	25.6693	22.9887	-2.30534	0	0	0	0	0	0	0	0	0
3.195	296.271	210.357	-36.3411	0.0974807	0	-0.153522	26.7749	19.0105	-3.28425	0	0	0	0	0	0	0	0	0
3.2	201.749	133.791	-17.7192	0.360621	0	-0.144861	14.424	9.56538	-1.26683	0	0	0	0	0	0	0	0	0
3.205	120.547	74.286	3.79015	0.359269	0	-0.231277	1.26469	0.779357	0.0397636	0	0	0	0	0	0	0	0	0
3.21	64.7927	31.0882	13.5907	0.367546	0	-0.374888	-3.99821	-1.91838	-0.838648	0	0	0	0	0	0	0	0	0
3.215	0	0	0	0	0	0	0	0	0	0	0	0	0	0	0	0	0	0
3.22	0	0	0	0	0	0	0	0	0	0	0	0	0	0	0	0	0	0
3.225	0	0	0	0	0	0	0	0	0	0	0	0	0	0	0	0	0	0
3.23	0	0	0	0	0	0	0	0	0	0	0	0	0	0	0	0	0	0
3.235	0	0	0	0	0	0	0	0	0	0	0	0	0	0	0	0	0	0
3.24	0	0	0	0	0	0	0	0	0	0	0	0	0	0	0	0	0	0
3.245	0	0	0	0	0	0	0	0	0	0	0	0	0	0	0	0	0	0
3.25	0	0	0	0	0	0	0	0	0	0	0	0	0	0	0	0	0	0
3.255	0	0	0	0	0	0	0	0	0	0	0	0	0	0	0	0	0	0
3.26	0	0	0	0	0	0	0	0	0	0	0	0	0	0	0	0	0	0
3.265	0	0	0	0	0	0	0	0	0	0	0	0	0	0	0	0	0	0
3.27	0	0	0	0	0	0	0	0	0	0	0	0	0	0	0	0	0	0
3.275	0	0	0	0	0	0	0	0	0	0	0	0	0	0	0	0	0	0
3.28	0	0	0	0	0	0	0	0	0	0	0	0	0	0	0	0	0	0
3.285	0	0	0	0	0	0	0	0	0	0	0	0	0	0	0	0	0	0
3.29	0	0	0	0	0	0	0	0	0	0	0	0	0	0	0	0	0	0
3.295	0	0	0	0	0	0	0	0	0	0	0	0	0	0	0	0	0	0
3.3	0	0	0	0	0	0	0	0	0	0	0	0	0	0	0	0	0	0
3.305	0	0	0	0	0	0	0	0	0	0	0	0	0	0	0	0	0	0
3.31	0	0	0	0	0	0	0	0	0	0	0	0	0	0	0	0	0	0
3.315	0	0	0	0	0	0	0	0	0	0	0	0	0	0	0	0	0	0
3.32	0	0	0	0	0	0	0	0	0	0	0	0	0	0	0	0	0	0
3.325	0	0	0	0	0	0	0	0	0	0	0	0	0	0	0	0	0	0
3.33	0	0	0	0	0	0	0	0	0	0	0	0	0	0	0	0	0	0
3.335	0	0	0	0	0	0	0	0	0	0	0	0	0	0	0	0	0	0
3.34	0	0	0	0	0	0	0	0	0	0	0	0	0	0	0	0	0	0
3.345	0	0	0	0	0	0	0	0	0	0	0	0	0	0	0	0	0	0
3.35	0	0	0	0	0	0	0	0	0	0	0	0	0	0	0	0	0	0
3.355	0	0	0	0	0	0	0	0	0	0	0	0	0	0	0	0	0	0
3.36	0	0	0	0	0	0	0	0	0	0	0	0	0	0	0	0	0	0
3.365	0	0	0	0	0	0	0	0	0	-54.8948	99.342	-12.3834	1.21031	0	-0.338566	1.88299	-3.4076	0.424772
3.37	0	0	0	0	0	0	0	0	0	-96.0651	265.088	7.41532	1.09016	0	-0.397545	-0.659825	1.82076	0.0509323
3.375	0	0	0	0	0	0	0	0	0	-148.101	504.906	42.5991	1.07057	0	-0.381393	-2.14448	7.31098	0.616829
3.38	0	0	0	0	0	0	0	0	0	-191.538	790.518	88.8679	1.05585	0	-0.366994	-2.68605	11.0859	1.24625
3.385	0	0	0	0	0	0	0	0	0	-209.785	1092.67	130.106	1.04035	0	-0.353899	-1.72055	8.96151	1.06707
3.39	0	0	0	0	0	0	0	0	0	-214.136	1401.55	142.742	1.02012	0	-0.342819	0.495243	-3.24144	-0.330126
3.395	0	0	0	0	0	0	0	0	0	-231.417	1704.1	112.244	0.997817	0	-0.33444	2.72791	-20.0876	-1.32312
3.4	0	0	0	0	0	0	0	0	0	-271.574	1968.62	40.6287	0.982815	0	-0.329231	3.88627	-28.1713	-0.581404
